# xmcd CD database file
#
# Track frame offsets:
#	150
#	32727
#	67447
#	99825
#	132517
#	156335
#	180277
#	200187
#	233210
#
# Disc length: 3595 seconds
#
# Revision: 0
# Processed by: cddbd v1.5PL3 Copyright (c) Steve Scherf et al.
# Submitted via: CDex 1.51
#
DISCID=800e0909
DTITLE=Minami Hiroshi Go There! - Celestial Inside
DYEAR=2002
DGENRE=Jazz
TTITLE0=Elizabeth Taylor
TTITLE1=Serene
TTITLE2=Theme For COCO
TTITLE3=Christiania
TTITLE4=Lili Wong
TTITLE5=Yellowish Insurance
TTITLE6=Mr.Snave
TTITLE7=Insomnia
TTITLE8=Caroline Champtier
EXTD=YEAR: 2002
EXTT0=
EXTT1=
EXTT2=
EXTT3=
EXTT4=
EXTT5=
EXTT6=
EXTT7=
EXTT8=
PLAYORDER=
